<?xml version="1.0" encoding="utf-8"?>
<!-- Generator: Adobe Illustrator 13.0.2, SVG Export Plug-In . SVG Version: 6.00 Build 14948)  -->
<!DOCTYPE svg PUBLIC "-//W3C//DTD SVG 1.1//EN" "http://www.w3.org/Graphics/SVG/1.1/DTD/svg11.dtd">
<svg version="1.1" xmlns="http://www.w3.org/2000/svg" xmlns:xlink="http://www.w3.org/1999/xlink" x="0px" y="0px" width="1240px"
	 height="1201px" viewBox="0 0 1240 1201" enable-background="new 0 0 1240 1201" xml:space="preserve">
<g id="Layer_1">
	<g>
		<g>
			<line fill="none" stroke="#000000" stroke-width="0.5" x1="540" y1="609.5" x2="540" y2="460.998"/>
			<polygon points="542.501,461.728 540.008,457.41 537.515,461.728 			"/>
		</g>
	</g>
	<g>
		<g>
			<path fill="none" stroke="#000000" stroke-width="0.5" d="M554,657.5V483.998c0-3.85,3.15-7,7-7h141c3.85,0,7-3.15,7-7v-9"/>
			<polygon points="711.501,461.728 709.008,457.41 706.515,461.728 			"/>
		</g>
	</g>
	<g>
		<g>
			<path fill="none" stroke="#000000" stroke-width="0.5" d="M527.25,648.5V483.998c0-3.85-3.15-7-7-7h-137.5c-3.85,0-7-3.15-7-7v-9
				"/>
			<polygon points="378.251,461.728 375.758,457.41 373.265,461.728 			"/>
		</g>
	</g>
	<g>
		<path fill="none" stroke="#878787" stroke-width="0.5" d="M789.041,934.982c0,3.85-3.15,7-7,7H298.959c-3.85,0-7-3.15-7-7v-196
			c0-3.85,3.15-7,7-7h483.082c3.85,0,7,3.15,7,7V934.982z"/>
	</g>
	<g>
		<path fill="none" stroke="#878787" stroke-width="0.5" d="M186,850.241c0,3.85-3.15,7-7,7H34c-3.85,0-7-3.15-7-7v-111
			c0-3.85,3.15-7,7-7h145c3.85,0,7,3.15,7,7V850.241z"/>
	</g>
	<g>
		<path fill="none" stroke="#878787" stroke-width="0.5" d="M1184.5,934.982c0,3.85-3.15,7-7,7h-145c-3.85,0-7-3.15-7-7v-196
			c0-3.85,3.15-7,7-7h145c3.85,0,7,3.15,7,7V934.982z"/>
	</g>
	<g>
		<path fill="#E6E6E6" d="M1177.959,852.5c0,3.85-3.15,7-7,7h-126.918c-3.85,0-7-3.15-7-7v-74.518c0-3.85,3.15-7,7-7h126.918
			c3.85,0,7,3.15,7,7V852.5z"/>
	</g>
	<g>
		<path fill="#E6E6E6" d="M1177.959,906.504c0,3.85-3.15,7-7,7h-126.918c-3.85,0-7-3.15-7-7V873.5c0-3.85,3.15-7,7-7h126.918
			c3.85,0,7,3.15,7,7V906.504z"/>
	</g>
	<circle fill="#E6E6E6" cx="1098.527" cy="598.054" r="10.554"/>
	<path fill="#E6E6E6" d="M1129.442,674.189l-21.379-15.804l-6.319-46.769c-1.033,0.243-2.108,0.377-3.217,0.377
		c-3.374,0-6.468-1.199-8.879-3.193l-19.881,22.235l9.234,7.916l-1.584,3.958l1.87,44.59h6.313l1.316-29.814l6.598,10.025
		l1.847,19.789h5.013v-23.747l-4.529-11.12l24.263,17.938l-8.783,16.93h21.899l24.935-24.273
		C1141.654,659.427,1119.172,650.303,1129.442,674.189z M1081.376,632.487l-2.901-2.508l5.276-5.408L1081.376,632.487z
		 M1101.663,653.654l-6.854-5.068l3.19-12.272L1101.663,653.654z"/>
	<circle fill="#E6E6E6" cx="928.007" cy="1144.387" r="3.344"/>
	<path fill="#E6E6E6" d="M937.8,1168.504l-6.772-5.006l-2.002-14.814c-0.326,0.076-0.668,0.118-1.019,0.118
		c-1.069,0-2.049-0.38-2.813-1.012l-6.298,7.044l2.925,2.508l-0.501,1.254l0.592,14.125h2l0.416-9.444l2.091,3.176l0.585,6.269
		h1.588v-7.522l-1.436-3.522l7.687,5.683l-2.782,5.362h6.938l7.898-7.689C941.668,1163.828,934.547,1160.938,937.8,1168.504z
		 M922.573,1155.294l-0.919-0.794l1.672-1.713L922.573,1155.294z M929,1162l-2.171-1.606l1.011-3.888L929,1162z"/>
	<circle fill="#5FC2FF" cx="529.861" cy="44.2" r="4.173"/>
	<circle fill="#5FC2FF" cx="556.121" cy="44.2" r="4.173"/>
	<path fill="#5FC2FF" d="M506.685,25.5v39.225h31.896v3.34l-31.896,0.002V125.5h18.544l14.114-14.114l-8.111-8.11l8.111-8.11
		l-2.371-2.37l-10.479,10.48l4.598,4.6l-9.279,9.28h-6.779V76.412h55.921v40.742h-6.778l-9.28-9.28l4.6-4.599L549.01,92.794
		l-2.371,2.37l8.112,8.111l-8.112,8.109l14.115,14.115h18.544V68.066h-31.896v-3.34h31.896V25.5H506.685z M570.952,56.379h-55.921
		V33.25h55.921V56.379z"/>
	
		<rect x="538.17" y="98.454" transform="matrix(-0.7071 0.7071 -0.7071 -0.7071 999.9687 -207.6508)" fill="#FF5F5F" width="9.641" height="9.642"/>
	<a xlink:href="http://trac.buildbot.net/" >
		<text transform="matrix(1 0 0 1 598.5 125.958)" font-family="'MyriadPro-Regular'" font-size="135.7091">BuildBot</text>
	</a>
	<a xlink:href="http://buildbot.net/buildbot/docs/0.8.5/manual/cfg-buildslaves.html" >
		<text transform="matrix(1 0 0 1 1058 709.5)" font-family="'MyriadPro-Regular'" font-size="21">BuildSlave(s)</text>
	</a>
	<a xlink:href="http://buildbot.net/buildbot/docs/0.8.5/reference/buildbot.master.BuildMaster-class.html" >
		<text transform="matrix(1 0 0 1 486.5 709.5)" font-family="'MyriadPro-Regular'" font-size="21">BuildMaster</text>
	</a>
	<text transform="matrix(1 0 0 1 502.5 313.4995)" font-family="'MyriadPro-Regular'" font-size="21">a human</text>
	<a xlink:href="http://trac.buildbot.net/" >
		<text transform="matrix(1 0 0 1 1085.5 128.4995)" fill="#5FC2FF" font-family="'MyriadPro-Regular'" font-size="21">v0.8.5</text>
	</a>
	<a xlink:href="http://buildbot.net/buildbot/docs/0.8.5/manual/cfg-changesources.html" >
		<text transform="matrix(1 0 0 1 41.5 709.5)" font-family="'MyriadPro-Regular'" font-size="21">Change Source</text>
	</a>
	<g>
		<g>
			<line fill="none" stroke="#000000" stroke-width="0.5" x1="728.5" y1="797.754" x2="1053.582" y2="797.754"/>
			<polygon points="1052.853,800.255 1057.17,797.762 1052.853,795.269 			"/>
		</g>
	</g>
	<g>
		<g>
			<line fill="none" stroke="#000000" stroke-width="0.5" x1="415.5" y1="797.754" x2="655.664" y2="797.754"/>
			<polygon points="654.935,800.255 659.252,797.762 654.935,795.269 			"/>
		</g>
	</g>
	<g>
		<g>
			<path fill="none" stroke="#000000" stroke-width="0.5" d="M1115.667,783v-30c0-3.85-3.15-7-7-7H794.664"/>
			<polygon points="795.394,743.499 791.076,745.992 795.394,748.485 			"/>
		</g>
	</g>
	<g>
		<g>
			<path fill="none" stroke="#000000" stroke-width="0.5" d="M1115.667,900v26c0,3.85-3.15,7-7,7H794.664"/>
			<polygon points="795.394,930.499 791.076,932.992 795.394,935.485 			"/>
		</g>
	</g>
	<g>
		<g>
			<path fill="none" stroke="#000000" stroke-width="0.5" d="M1157.959,886h35c3.85,0,7,3.15,7,7v125c0,3.85-3.15,7-7,7H135.041
				c-3.85,0-7-3.15-7-7V821.5"/>
			<polygon points="130.542,822.229 128.049,817.911 125.556,822.229 			"/>
		</g>
	</g>
	<g>
		<g>
			<path fill="none" stroke="#000000" stroke-width="0.5" d="M1158.959,838h54c3.85,0,7,3.15,7,7v235c0,3.85-3.15,7-7,7H87.041
				c-3.85,0-7-3.15-7-7V822.5"/>
			<polygon points="82.542,823.229 80.049,818.911 77.556,823.229 			"/>
		</g>
	</g>
	<g>
		<g>
			<line fill="none" stroke="#000000" stroke-width="0.5" x1="375" y1="430.5" x2="375" y2="406.5"/>
			<polygon points="377.501,407.229 375.008,402.912 372.515,407.229 			"/>
		</g>
	</g>
	<g>
		<g>
			<line fill="none" stroke="#000000" stroke-width="0.5" x1="544" y1="430.5" x2="544" y2="406.5"/>
			<polygon points="546.501,407.229 544.008,402.912 541.515,407.229 			"/>
		</g>
	</g>
	<g>
		<g>
			<line fill="none" stroke="#000000" stroke-width="0.5" x1="707" y1="430.5" x2="707" y2="406.5"/>
			<polygon points="709.501,407.229 707.008,402.912 704.515,407.229 			"/>
		</g>
	</g>
	<g>
		<g>
			<line fill="none" stroke="#000000" stroke-width="0.5" x1="541" y1="377" x2="541" y2="332"/>
			<polygon points="543.501,332.729 541.008,328.412 538.515,332.729 			"/>
		</g>
	</g>
	<g>
		<g>
			<path fill="none" stroke="#000000" stroke-width="0.5" d="M708,377v-22c0-3.85-3.15-7-7-7H561c-3.85,0-7-3.15-7-7v-9"/>
			<polygon points="556.501,332.729 554.008,328.412 551.515,332.729 			"/>
		</g>
	</g>
	<g>
		<g>
			<path fill="none" stroke="#000000" stroke-width="0.5" d="M376,377v-22c0-3.85,3.15-7,7-7h137.25c3.85,0,7-3.15,7-7v-9"/>
			<polygon points="529.751,332.729 527.258,328.412 524.765,332.729 			"/>
		</g>
	</g>
	<g>
		<g>
			<line fill="none" stroke="#000000" stroke-width="0.5" x1="160" y1="798" x2="333.5" y2="798"/>
			<polygon points="332.771,800.501 337.088,798.008 332.771,795.515 			"/>
		</g>
	</g>
	<g>
		<g>
			<path fill="none" stroke="#000000" stroke-width="0.5" d="M390,782.982v-68c0-3.85-3.15-7-7-7h-27c-3.85,0-7,3.15-7,7v12"/>
			<polygon points="346.499,726.253 348.992,730.571 351.485,726.253 			"/>
		</g>
	</g>
	<g>
		<g>
			<path fill="none" stroke="#000000" stroke-width="0.5" d="M390,901.5v56.482c0,3.85-3.15,7-7,7h-27c-3.85,0-7-3.15-7-7v-10"/>
			<polygon points="351.501,948.712 349.008,944.394 346.515,948.712 			"/>
		</g>
	</g>
	<g>
		<g>
			<path fill="none" stroke="#000000" stroke-width="0.5" d="M725.5,877.634h29c3.85,0,9.601-1.777,12.779-3.949l44.441-30.369
				c3.179-2.172,8.93-3.949,12.779-3.949h229.082"/>
			<polygon points="1052.853,841.867 1057.17,839.374 1052.853,836.881 			"/>
		</g>
	</g>
	<g>
		<g>
			<line fill="none" stroke="#000000" stroke-width="0.5" x1="725.5" y1="886.897" x2="1053.582" y2="886.897"/>
			<polygon points="1052.853,889.398 1057.17,886.905 1052.853,884.412 			"/>
		</g>
	</g>
	<g>
		<g>
			<line fill="none" stroke="#000000" stroke-width="0.5" x1="695" y1="768.5" x2="695" y2="778.5"/>
			<polygon points="692.499,777.771 694.992,782.089 697.485,777.771 			"/>
		</g>
	</g>
	<path id="path5_3_"  fill="#5FC2FF" d="M494.623,223.146"/>
	<path id="path13_3_"  fill="#E6E6E6" d="M517.096,244.68
		c-14.692,0.059-27.646,24.705-27.596,39.801c0,0,76.072,0.043,100,0c0.022-14.005-12.348-39.719-28.438-39.65L517.096,244.68z"/>
	<path id="path15_3_"  fill="#E6E6E6" d="M539.23,238.808c11.486,0.063,20.85-9.485,20.899-21.323
		c-0.05-11.727-9.413-21.274-20.899-21.32c-11.605,0.046-20.969,9.594-20.893,21.318
		C518.262,229.322,527.625,238.867,539.23,238.808L539.23,238.808z"/>
	<path id="path17_3_"  fill="#5FC2FF" d="M539.756,217.482"/>
	<circle fill="#FFFFFF" cx="530.326" cy="219.337" r="4.173"/>
	<circle fill="#FFFFFF" cx="547.673" cy="219.337" r="4.173"/>
	<path fill="#FF5F5F" stroke="#FFFFFF" stroke-width="2" d="M538.581,272.998c0.785-0.785,5.267-5.27,8.069-8.07
		c2.51-2.511,2.456-6.17,0.174-8.439c-2.282-2.271-5.973-2.262-8.243,0.021c-2.27-2.283-5.96-2.293-8.243-0.021
		c-2.282,2.27-2.335,5.929,0.175,8.439C533.314,267.729,537.797,272.213,538.581,272.998z"/>
	<rect x="530.5" y="232.164" fill="#E6E6E6" width="15" height="18"/>
	<text transform="matrix(1 0 0 1 59.5 778)" fill="#5FC2FF" font-family="'MyriadPro-Regular'" font-size="12">SVN, CVS, Git, ...</text>
	<text transform="matrix(1 0 0 1 336.5 824.5)" fill="#5FC2FF" font-family="'MyriadPro-Regular'" font-size="12">commit-triggered</text>
	<text transform="matrix(1 0 0 1 339.4688 850.5)"><tspan x="0" y="0" fill="#5FC2FF" font-family="'MyriadPro-Regular'" font-size="12">periodic timer-</tspan><tspan x="13.613" y="14.4" fill="#5FC2FF" font-family="'MyriadPro-Regular'" font-size="12">triggered</tspan></text>
	<text transform="matrix(1 0 0 1 649.7031 826.5)"><tspan x="0" y="0" fill="#5FC2FF" font-family="'MyriadPro-Regular'" font-size="12">the most important</tspan><tspan x="-9.12" y="14.4" fill="#5FC2FF" font-family="'MyriadPro-Regular'" font-size="12">component in BuildBot</tspan></text>
	<text transform="matrix(1 0 0 1 643.2529 954.5)"><tspan x="0" y="0" fill="#5FC2FF" font-family="'MyriadPro-Regular'" font-size="12">contains a list of Steps</tspan><tspan x="4.8" y="14.4" fill="#5FC2FF" font-family="'MyriadPro-Regular'" font-size="12">to execute on slaves</tspan></text>
	<g>
		<text transform="matrix(1 0 0 1 201.5 746.0039)"><tspan x="0" y="0" fill="#5FC2FF" font-family="'MyriadPro-Regular'" font-size="12">e.g., post-</tspan><tspan x="0" y="14.4" fill="#5FC2FF" font-family="'MyriadPro-Regular'" font-size="12">commit trigger</tspan></text>
	</g>
	<text transform="matrix(1 0 0 1 70.4229 109.248)" font-family="'MyriadPro-Regular'" font-size="52.1777">the architecture of</text>
	
		<text transform="matrix(0.9716 -0.2366 0.2366 0.9716 126.0732 81.6318)" fill="#FF5F5F" font-family="'MyriadPro-Regular'" font-size="22.0907">(basic!)</text>
	
		<text transform="matrix(0.9891 0.147 -0.147 0.9891 126.0713 149.6699)" fill="#FF5F5F" font-family="'ComicSansMS'" font-size="54.9549">^</text>
	<g>
		<path fill="#FFFFFF" d="M419,806c0,2.75-2.25,5-5,5h-68c-2.75,0-5-2.25-5-5v-17c0-2.75,2.25-5,5-5h68c2.75,0,5,2.25,5,5V806z"/>
		<path fill="none" stroke="#000000" stroke-width="0.5" d="M419,806c0,2.75-2.25,5-5,5h-68c-2.75,0-5-2.25-5-5v-17
			c0-2.75,2.25-5,5-5h68c2.75,0,5,2.25,5,5V806z"/>
	</g>
	<a xlink:href="http://buildbot.net/buildbot/docs/0.8.5/manual/cfg-schedulers.html" >
		<text transform="matrix(1 0 0 1 350.5 802.5)" font-family="'MyriadPro-Regular'" font-size="14">Scheduler</text>
	</a>
	<g>
		<path fill="#FFFFFF" d="M746.75,401.5h-70.5c-3.998,0-7.25-3.252-7.25-7.25v-13c0-3.998,3.252-7.25,7.25-7.25h70.5
			c3.997,0,7.25,3.252,7.25,7.25v13C754,398.248,750.747,401.5,746.75,401.5L746.75,401.5z"/>
		<g>
			<path d="M746.75,374.25c3.85,0,7,3.15,7,7v13c0,3.85-3.15,7-7,7h-70.5c-3.85,0-7-3.15-7-7v-13c0-3.85,3.15-7,7-7H746.75
				 M746.75,373.75h-70.5c-4.136,0-7.5,3.364-7.5,7.5v13c0,4.136,3.364,7.5,7.5,7.5h70.5c4.136,0,7.5-3.364,7.5-7.5v-13
				C754.25,377.114,750.886,373.75,746.75,373.75L746.75,373.75z"/>
		</g>
	</g>
	<text transform="matrix(1 0 0 1 678.832 392.4995)" font-family="'MyriadPro-Regular'" font-size="14">web server</text>
	<g>
		<path fill="#FFFFFF" d="M577.499,402h-64c-3.999,0-7.25-3.252-7.25-7.25v-13c0-3.999,3.251-7.25,7.25-7.25h64
			c3.999,0,7.25,3.251,7.25,7.25v13C584.749,398.748,581.498,402,577.499,402L577.499,402z"/>
		<g>
			<path d="M577.5,374.75c3.85,0,7,3.15,7,7v13c0,3.85-3.15,7-7,7h-64c-3.85,0-7-3.15-7-7v-13c0-3.85,3.15-7,7-7H577.5
				 M577.5,374.25h-64c-4.136,0-7.5,3.364-7.5,7.5v13c0,4.136,3.364,7.5,7.5,7.5h64c4.136,0,7.5-3.364,7.5-7.5v-13
				C585,377.614,581.636,374.25,577.5,374.25L577.5,374.25z"/>
		</g>
	</g>
	<text transform="matrix(1 0 0 1 514.4995 392.4995)" font-family="'MyriadPro-Regular'" font-size="14">mail server</text>
	<g>
		<path fill="#FFFFFF" d="M406.5,401.249h-64c-3.999,0-7.25-3.251-7.25-7.25v-13c0-3.999,3.251-7.25,7.25-7.25h64
			c3.999,0,7.25,3.251,7.25,7.25v13C413.75,397.998,410.499,401.249,406.5,401.249L406.5,401.249z"/>
		<path d="M406.5,374c3.85,0,7,3.15,7,7v13c0,3.85-3.15,7-7,7h-64c-3.85,0-7-3.15-7-7v-13c0-3.85,3.15-7,7-7H406.5 M406.5,373.5h-64
			c-4.136,0-7.5,3.364-7.5,7.5v13c0,4.136,3.364,7.5,7.5,7.5h64c4.135,0,7.5-3.364,7.5-7.5v-13
			C414,376.864,410.635,373.5,406.5,373.5L406.5,373.5z"/>
	</g>
	<text transform="matrix(1 0 0 1 345.6655 392.4995)" font-family="'MyriadPro-Regular'" font-size="14">IRC server</text>
	<g>
		<path fill="#FFFFFF" d="M763.167,456.25H650.166c-3.998,0-7.25-3.252-7.25-7.25v-12.999c0-3.998,3.252-7.25,7.25-7.25h113.001
			c3.997,0,7.247,3.252,7.247,7.25V449C770.414,452.997,767.164,456.25,763.167,456.25L763.167,456.25z"/>
		<path d="M763.166,429c3.85,0,7,3.15,7,7v13c0,3.85-3.15,7-7,7h-113c-3.85,0-7-3.15-7-7v-13c0-3.85,3.15-7,7-7H763.166
			 M763.166,428.5h-113c-4.136,0-7.5,3.364-7.5,7.5v13c0,4.135,3.364,7.5,7.5,7.5h113c4.136,0,7.5-3.365,7.5-7.5v-13
			C770.666,431.864,767.302,428.5,763.166,428.5L763.166,428.5z"/>
	</g>
	<a xlink:href="http://buildbot.net/buildbot/docs/0.8.5/manual/cfg-statustargets.html#webstatus" >
		<text transform="matrix(1 0 0 1 649.5 447.4995)" font-family="'MyriadPro-Regular'" font-size="14">Status Plugin (Web)</text>
	</a>
	<g>
		<path fill="#FFFFFF" d="M606.166,456.25H486.167c-3.998,0-7.251-3.253-7.251-7.251V436c0-3.998,3.253-7.25,7.251-7.25h119.999
			c3.998,0,7.251,3.252,7.251,7.25v12.999C613.417,452.997,610.164,456.25,606.166,456.25L606.166,456.25z"/>
		<path d="M606.166,429c3.85,0,7,3.15,7,7v13c0,3.85-3.15,7-7,7h-120c-3.85,0-7-3.15-7-7v-13c0-3.85,3.15-7,7-7H606.166
			 M606.166,428.5h-120c-4.136,0-7.5,3.365-7.5,7.5v13c0,4.136,3.364,7.5,7.5,7.5h120c4.136,0,7.5-3.364,7.5-7.5v-13
			C613.666,431.865,610.302,428.5,606.166,428.5L606.166,428.5z"/>
	</g>
	<a xlink:href="http://buildbot.net/buildbot/docs/0.8.5/manual/cfg-statustargets.html#mailnotifier" >
		<text transform="matrix(1 0 0 1 484.4995 447.4995)" font-family="'MyriadPro-Regular'" font-size="14">Status Plugin (E-Mail)</text>
	</a>
	<g>
		<path fill="#FFFFFF" d="M427.5,456.25h-106c-3.998,0-7.249-3.251-7.249-7.249v-13c0-4,3.251-7.251,7.249-7.251h106
			c3.998,0,7.249,3.251,7.249,7.251v13C434.749,452.998,431.498,456.25,427.5,456.25L427.5,456.25z"/>
		<path d="M427.5,429c3.85,0,7,3.15,7,7v13c0,3.85-3.15,7-7,7h-106c-3.85,0-7-3.15-7-7v-13c0-3.85,3.15-7,7-7H427.5 M427.5,428.5
			h-106c-4.135,0-7.5,3.365-7.5,7.5v13c0,4.136,3.365,7.5,7.5,7.5h106c4.136,0,7.5-3.364,7.5-7.5v-13
			C435,431.865,431.636,428.5,427.5,428.5L427.5,428.5z"/>
	</g>
	<a xlink:href="http://buildbot.net/buildbot/docs/0.8.5/manual/cfg-statustargets.html#irc-bot" >
		<text transform="matrix(1 0 0 1 321.4995 447.4995)" font-family="'MyriadPro-Regular'" font-size="14">Status Plugin (IRC)</text>
	</a>
	<g>
		<path fill="#FFFFFF" d="M722.499,812.499H670.5c-4.412,0-8-3.589-8-7.998V791.5c0-4.41,3.588-7.999,8-7.999h51.999
			c4.412,0,8.001,3.589,8.001,7.999v13.001C730.5,808.91,726.911,812.499,722.499,812.499L722.499,812.499z"/>
		<path fill="#FF0000" d="M722.5,784.5c3.85,0,7,3.15,7,7v13c0,3.85-3.15,7-7,7h-52c-3.85,0-7-3.15-7-7v-13c0-3.85,3.15-7,7-7H722.5
			 M722.5,782.5h-52c-4.963,0-9,4.037-9,9v13c0,4.963,4.037,9,9,9h52c4.963,0,9-4.037,9-9v-13
			C731.5,786.537,727.463,782.5,722.5,782.5L722.5,782.5z"/>
	</g>
	<a xlink:href="http://buildbot.net/buildbot/docs/0.8.5/reference/buildbot.process.builder.Builder-class.html" >
		<text transform="matrix(1 0 0 1 677.5 802.5)" font-family="'MyriadPro-Regular'" font-size="14">Builder</text>
	</a>
	<g>
		<path fill="#FFFFFF" d="M1159,806c0,2.75-2.25,5-5,5h-89c-2.75,0-5-2.25-5-5v-17c0-2.75,2.25-5,5-5h89c2.75,0,5,2.25,5,5V806z"/>
		<path fill="none" stroke="#000000" stroke-width="0.5" d="M1159,806c0,2.75-2.25,5-5,5h-89c-2.75,0-5-2.25-5-5v-17
			c0-2.75,2.25-5,5-5h89c2.75,0,5,2.25,5,5V806z"/>
	</g>
	<a xlink:href="http://buildbot.net/buildbot/docs/0.8.5/reference/buildbot.process.slavebuilder.SlaveBuilder-class.html" >
		<text transform="matrix(1 0 0 1 1073.5 802.5)" font-family="'MyriadPro-Regular'" font-size="14">SlaveBuilder</text>
	</a>
	<g>
		<path fill="#FFFFFF" d="M1159,847c0,2.75-2.25,5-5,5h-89c-2.75,0-5-2.25-5-5v-17c0-2.75,2.25-5,5-5h89c2.75,0,5,2.25,5,5V847z"/>
		<path fill="none" stroke="#000000" stroke-width="0.5" d="M1159,847c0,2.75-2.25,5-5,5h-89c-2.75,0-5-2.25-5-5v-17
			c0-2.75,2.25-5,5-5h89c2.75,0,5,2.25,5,5V847z"/>
	</g>
	<a xlink:href="http://buildbot.net/buildbot/docs/0.8.5/reference/buildbot.process.slavebuilder.SlaveBuilder-class.html" >
		<text transform="matrix(1 0 0 1 1073.5 843.5)" font-family="'MyriadPro-Regular'" font-size="14">SlaveBuilder</text>
	</a>
	<g>
		<path fill="#FFFFFF" d="M1159,896c0,2.75-2.25,5-5,5h-89c-2.75,0-5-2.25-5-5v-17c0-2.75,2.25-5,5-5h89c2.75,0,5,2.25,5,5V896z"/>
		<path fill="none" stroke="#000000" stroke-width="0.5" d="M1159,896c0,2.75-2.25,5-5,5h-89c-2.75,0-5-2.25-5-5v-17
			c0-2.75,2.25-5,5-5h89c2.75,0,5,2.25,5,5V896z"/>
	</g>
	<a xlink:href="http://buildbot.net/buildbot/docs/0.8.5/reference/buildbot.process.slavebuilder.SlaveBuilder-class.html" >
		<text transform="matrix(1 0 0 1 1073.5 892.5)" font-family="'MyriadPro-Regular'" font-size="14">SlaveBuilder</text>
	</a>
	<g>
		<path fill="#FFFFFF" d="M722.501,899.501H670.5c-4.412,0-8.002-3.589-8.002-8.001v-13.001c0-4.41,3.59-7.999,8.002-7.999h52.001
			c4.41,0,7.999,3.589,7.999,7.999V891.5C730.5,895.912,726.911,899.501,722.501,899.501L722.501,899.501z"/>
		<path fill="#FF0000" d="M722.5,871.5c3.85,0,7,3.15,7,7v13c0,3.85-3.15,7-7,7h-52c-3.85,0-7-3.15-7-7v-13c0-3.85,3.15-7,7-7H722.5
			 M722.5,869.5h-52c-4.963,0-9,4.037-9,9v13c0,4.963,4.037,9,9,9h52c4.963,0,9-4.037,9-9v-13
			C731.5,873.537,727.463,869.5,722.5,869.5L722.5,869.5z"/>
	</g>
	<a xlink:href="http://buildbot.net/buildbot/docs/0.8.5/reference/buildbot.process.builder.Builder-class.html" >
		<text transform="matrix(1 0 0 1 677.5 889.5)" font-family="'MyriadPro-Regular'" font-size="14">Builder</text>
	</a>
	<rect x="484" y="787" fill="#FFFFFF" stroke="#000000" stroke-width="0.5" width="106" height="21"/>
	<rect x="575.5" y="789.5" fill="#DEDEDE" width="12" height="16"/>
	<rect x="561.5" y="789.5" fill="#DEDEDE" width="12" height="16"/>
	<text transform="matrix(1 0 0 1 469.5 792.5)" fill="#ABABAB" font-family="'MyriadPro-Regular'" font-size="18">λ</text>
	<text transform="matrix(1 0 0 1 598.5 819.5)" fill="#ABABAB" font-family="'MyriadPro-Regular'" font-size="18">μ</text>
	<circle fill="#FFFFFF" stroke="#000000" stroke-width="0.5" cx="603.5" cy="797.504" r="10"/>
	<g>
		<g>
			<line fill="none" stroke="#000000" stroke-width="0.5" x1="415.5" y1="884.254" x2="655.664" y2="884.254"/>
			<polygon points="654.935,886.755 659.252,884.262 654.935,881.769 			"/>
		</g>
	</g>
	<rect x="484" y="873.5" fill="#FFFFFF" stroke="#000000" stroke-width="0.5" width="106" height="21"/>
	<rect x="575.5" y="876" fill="#DEDEDE" width="12" height="16"/>
	<rect x="561.5" y="876" fill="#DEDEDE" width="12" height="16"/>
	<text transform="matrix(1 0 0 1 469.5 879)" fill="#ABABAB" font-family="'MyriadPro-Regular'" font-size="18">λ</text>
	<text transform="matrix(1 0 0 1 598.5 906)" fill="#ABABAB" font-family="'MyriadPro-Regular'" font-size="18">μ</text>
	<circle fill="#FFFFFF" stroke="#000000" stroke-width="0.5" cx="603.5" cy="884.004" r="10"/>
	<path fill="#E6E6E6" d="M134.881,595.297c-0.096-1.285-1.157-2.299-2.466-2.299H37.984c-1.309,0-2.369,1.014-2.465,2.299
		L35.5,659.1c0,1.373,1.112,2.484,2.484,2.484h94.431c1.372,0,2.485-1.111,2.485-2.484L134.881,595.297z M39.76,597.4h90.88v52.256
		H39.76V597.4z"/>
	<path fill="#E6E6E6" d="M101.104,673.513c-3.975-0.994-4.97-3.979-4.97-7.954H74.266c0,3.976-0.994,6.959-4.97,7.954
		c-0.964,0.24-0.995,1.985,0,1.985H85.2h15.903C102.099,675.5,102.068,673.753,101.104,673.513z"/>
	<path fill="#E6E6E6" d="M173.24,593.14h-4.261h-15.62h-4.26c-2.154,0-4.26,2.439-4.26,4.261v2.84v1.42v65.32v1.42v2.84
		c0,1.82,2.105,4.26,4.26,4.26h4.26h15.62h4.261c2.154,0,4.26-2.439,4.26-4.26v-2.84v-1.42v-65.32v-1.42v-2.84
		C177.5,595.578,175.395,593.14,173.24,593.14z M174.661,671.217c-0.057,0.44-0.902,1.443-1.421,1.443h-4.261h-15.62h-4.26
		c-0.519,0-1.364-1.003-1.421-1.443l0.001-2.816h26.98L174.661,671.217z M147.68,600.24l-0.001-2.815
		c0.057-0.442,0.902-1.444,1.421-1.444h4.26h15.62h4.261c0.519,0,1.364,1.002,1.421,1.444l-0.001,2.815H147.68z"/>
	<text transform="matrix(1 0 0 1 48.5 635.5)" fill="#E6E6E6" font-family="'MyriadPro-Regular'" font-size="31.7053">GIT://</text>
	<path fill="#E6E6E6" d="M47.054,1153.492c-0.024-0.319-0.288-0.571-0.613-0.571H22.975c-0.325,0-0.589,0.252-0.612,0.571
		l-0.005,15.855c0,0.341,0.276,0.617,0.618,0.617h23.466c0.341,0,0.618-0.276,0.618-0.617L47.054,1153.492z M23.417,1154.015H46
		V1167H23.417V1154.015z"/>
	<path fill="#E6E6E6" d="M38.66,1172.929c-0.988-0.247-1.235-0.988-1.235-1.976h-5.434c0,0.987-0.247,1.729-1.235,1.976
		c-0.24,0.06-0.247,0.493,0,0.493h3.953h3.952C38.908,1173.423,38.9,1172.988,38.66,1172.929z"/>
	<path fill="#E6E6E6" d="M56.586,1152.956h-1.059h-3.882h-1.059c-0.535,0-1.059,0.606-1.059,1.059v0.706v0.353v16.232v0.353v0.706
		c0,0.452,0.523,1.059,1.059,1.059h1.059h3.882h1.059c0.535,0,1.059-0.606,1.059-1.059v-0.706v-0.353v-16.232v-0.353v-0.706
		C57.645,1153.563,57.122,1152.956,56.586,1152.956z M56.94,1172.358c-0.015,0.109-0.225,0.358-0.354,0.358h-1.059h-3.882h-1.059
		c-0.129,0-0.339-0.249-0.353-0.358l0-0.7h6.705L56.94,1172.358z M50.235,1154.721l0-0.699c0.014-0.11,0.224-0.359,0.353-0.359
		h1.059h3.882h1.059c0.129,0,0.339,0.249,0.354,0.359l0,0.699H50.235z"/>
	<a xlink:href="http://buildbot.net/buildbot/docs/0.8.5/reference/buildbot.process.buildrequest.BuildRequest-class.html" >
		<text transform="matrix(1 0 0 1 491.5005 782.5)" font-family="'MyriadPro-Regular'" font-size="14">BuildRequest Q</text>
	</a>
	<a xlink:href="http://buildbot.net/buildbot/docs/0.8.5/reference/buildbot.process.buildrequest.BuildRequest-class.html" >
		<text transform="matrix(1 0 0 1 491.5005 868.5)" font-family="'MyriadPro-Regular'" font-size="14">BuildRequest Q</text>
	</a>
	<a xlink:href="http://buildbot.net/buildbot/docs/0.8.5/reference/buildbot.process.build.Build-class.html" >
		<text transform="matrix(1 0 0 1 898.5 855.5)" font-family="'MyriadPro-Regular'" font-size="14">Build</text>
	</a>
	<path fill="#E6E6E6" d="M891.618,852.736h-2.28v-4.474h2.28c2.14,0,3.882-1.741,3.882-3.882s-1.742-3.881-3.882-3.881
		s-3.882,1.74-3.882,3.881v2.281h-4.474v-2.281c0-2.141-1.741-3.881-3.882-3.881c-2.139,0-3.881,1.74-3.881,3.881
		s1.742,3.882,3.881,3.882h2.281v4.474h-2.281c-2.139,0-3.881,1.741-3.881,3.881c0,2.141,1.742,3.883,3.881,3.883
		c2.141,0,3.882-1.742,3.882-3.883v-2.28h4.474v2.28c0,2.141,1.741,3.883,3.882,3.883c2.14,0,3.882-1.742,3.882-3.883
		C895.5,854.478,893.758,852.736,891.618,852.736z M889.338,844.381c0-1.258,1.023-2.281,2.28-2.281c1.258,0,2.28,1.023,2.28,2.281
		s-1.022,2.281-2.28,2.281h-2.28V844.381z M879.381,846.662c-1.257,0-2.279-1.023-2.279-2.281s1.022-2.281,2.279-2.281
		c1.258,0,2.281,1.023,2.281,2.281v2.281H879.381z M881.662,856.617c0,1.258-1.023,2.281-2.281,2.281
		c-1.257,0-2.279-1.023-2.279-2.281c0-1.257,1.022-2.28,2.279-2.28h2.281V856.617z M883.263,852.736v-4.474h4.474v4.474H883.263z
		 M891.618,858.898c-1.257,0-2.28-1.022-2.28-2.28v-2.281h2.28c1.258,0,2.28,1.023,2.28,2.28
		C893.898,857.875,892.876,858.898,891.618,858.898z"/>
	<a xlink:href="http://buildbot.net/buildbot/docs/0.8.5/reference/buildbot.process.build.Build-class.html" >
		<text transform="matrix(1 0 0 1 865.5 904.5)" font-family="'MyriadPro-Regular'" font-size="14">Build</text>
	</a>
	<path fill="#E6E6E6" d="M858.618,901.736h-2.28v-4.474h2.28c2.14,0,3.882-1.741,3.882-3.882s-1.742-3.881-3.882-3.881
		s-3.882,1.74-3.882,3.881v2.281h-4.474v-2.281c0-2.141-1.741-3.881-3.882-3.881c-2.139,0-3.881,1.74-3.881,3.881
		s1.742,3.882,3.881,3.882h2.281v4.474h-2.281c-2.139,0-3.881,1.741-3.881,3.881c0,2.141,1.742,3.883,3.881,3.883
		c2.141,0,3.882-1.742,3.882-3.883v-2.28h4.474v2.28c0,2.141,1.741,3.883,3.882,3.883c2.14,0,3.882-1.742,3.882-3.883
		C862.5,903.478,860.758,901.736,858.618,901.736z M856.338,893.381c0-1.258,1.023-2.281,2.28-2.281c1.258,0,2.28,1.023,2.28,2.281
		s-1.022,2.281-2.28,2.281h-2.28V893.381z M846.381,895.662c-1.257,0-2.279-1.023-2.279-2.281s1.022-2.281,2.279-2.281
		c1.258,0,2.281,1.023,2.281,2.281v2.281H846.381z M848.662,905.617c0,1.258-1.023,2.281-2.281,2.281
		c-1.257,0-2.279-1.023-2.279-2.281c0-1.257,1.022-2.28,2.279-2.28h2.281V905.617z M850.263,901.736v-4.474h4.474v4.474H850.263z
		 M858.618,907.898c-1.257,0-2.28-1.022-2.28-2.28v-2.281h2.28c1.258,0,2.28,1.023,2.28,2.28
		C860.898,906.875,859.876,907.898,858.618,907.898z"/>
	<a xlink:href="http://buildbot.net/buildbot/docs/0.8.5/reference/buildbot.process.build.Build-class.html" >
		<text transform="matrix(1 0 0 1 950.5 904.5)" font-family="'MyriadPro-Regular'" font-size="14">Build</text>
	</a>
	<path fill="#E6E6E6" d="M943.618,901.736h-2.28v-4.474h2.28c2.14,0,3.882-1.741,3.882-3.882s-1.742-3.881-3.882-3.881
		s-3.882,1.74-3.882,3.881v2.281h-4.474v-2.281c0-2.141-1.741-3.881-3.882-3.881c-2.139,0-3.881,1.74-3.881,3.881
		s1.742,3.882,3.881,3.882h2.281v4.474h-2.281c-2.139,0-3.881,1.741-3.881,3.881c0,2.141,1.742,3.883,3.881,3.883
		c2.141,0,3.882-1.742,3.882-3.883v-2.28h4.474v2.28c0,2.141,1.741,3.883,3.882,3.883c2.14,0,3.882-1.742,3.882-3.883
		C947.5,903.478,945.758,901.736,943.618,901.736z M941.338,893.381c0-1.258,1.023-2.281,2.28-2.281c1.258,0,2.28,1.023,2.28,2.281
		s-1.022,2.281-2.28,2.281h-2.28V893.381z M931.381,895.662c-1.257,0-2.279-1.023-2.279-2.281s1.022-2.281,2.279-2.281
		c1.258,0,2.281,1.023,2.281,2.281v2.281H931.381z M933.662,905.617c0,1.258-1.023,2.281-2.281,2.281
		c-1.257,0-2.279-1.023-2.279-2.281c0-1.257,1.022-2.28,2.279-2.28h2.281V905.617z M935.263,901.736v-4.474h4.474v4.474H935.263z
		 M943.618,907.898c-1.257,0-2.28-1.022-2.28-2.28v-2.281h2.28c1.258,0,2.28,1.023,2.28,2.28
		C945.898,906.875,944.876,907.898,943.618,907.898z"/>
	<a xlink:href="http://buildbot.net/buildbot/docs/0.8.5/reference/buildbot.process.build.Build-class.html" >
		<text transform="matrix(1 0 0 1 865.5 791.5)" font-family="'MyriadPro-Regular'" font-size="14">Build</text>
	</a>
	<path fill="#E6E6E6" d="M858.618,788.736h-2.28v-4.474h2.28c2.14,0,3.882-1.741,3.882-3.882s-1.742-3.881-3.882-3.881
		s-3.882,1.74-3.882,3.881v2.281h-4.474v-2.281c0-2.141-1.741-3.881-3.882-3.881c-2.139,0-3.881,1.74-3.881,3.881
		s1.742,3.882,3.881,3.882h2.281v4.474h-2.281c-2.139,0-3.881,1.741-3.881,3.881c0,2.141,1.742,3.883,3.881,3.883
		c2.141,0,3.882-1.742,3.882-3.883v-2.28h4.474v2.28c0,2.141,1.741,3.883,3.882,3.883c2.14,0,3.882-1.742,3.882-3.883
		C862.5,790.478,860.758,788.736,858.618,788.736z M856.338,780.381c0-1.258,1.023-2.281,2.28-2.281c1.258,0,2.28,1.023,2.28,2.281
		s-1.022,2.281-2.28,2.281h-2.28V780.381z M846.381,782.662c-1.257,0-2.279-1.023-2.279-2.281s1.022-2.281,2.279-2.281
		c1.258,0,2.281,1.023,2.281,2.281v2.281H846.381z M848.662,792.617c0,1.258-1.023,2.281-2.281,2.281
		c-1.257,0-2.279-1.023-2.279-2.281c0-1.257,1.022-2.28,2.279-2.28h2.281V792.617z M850.263,788.736v-4.474h4.474v4.474H850.263z
		 M858.618,794.898c-1.257,0-2.28-1.022-2.28-2.28v-2.281h2.28c1.258,0,2.28,1.023,2.28,2.28
		C860.898,793.875,859.876,794.898,858.618,794.898z"/>
	<a xlink:href="http://buildbot.net/buildbot/docs/0.8.5/reference/buildbot.process.build.Build-class.html" >
		<text transform="matrix(1 0 0 1 950.5 791.5)" font-family="'MyriadPro-Regular'" font-size="14">Build</text>
	</a>
	<path fill="#E6E6E6" d="M943.618,788.736h-2.28v-4.474h2.28c2.14,0,3.882-1.741,3.882-3.882s-1.742-3.881-3.882-3.881
		s-3.882,1.74-3.882,3.881v2.281h-4.474v-2.281c0-2.141-1.741-3.881-3.882-3.881c-2.139,0-3.881,1.74-3.881,3.881
		s1.742,3.882,3.881,3.882h2.281v4.474h-2.281c-2.139,0-3.881,1.741-3.881,3.881c0,2.141,1.742,3.883,3.881,3.883
		c2.141,0,3.882-1.742,3.882-3.883v-2.28h4.474v2.28c0,2.141,1.741,3.883,3.882,3.883c2.14,0,3.882-1.742,3.882-3.883
		C947.5,790.478,945.758,788.736,943.618,788.736z M941.338,780.381c0-1.258,1.023-2.281,2.28-2.281c1.258,0,2.28,1.023,2.28,2.281
		s-1.022,2.281-2.28,2.281h-2.28V780.381z M931.381,782.662c-1.257,0-2.279-1.023-2.279-2.281s1.022-2.281,2.279-2.281
		c1.258,0,2.281,1.023,2.281,2.281v2.281H931.381z M933.662,792.617c0,1.258-1.023,2.281-2.281,2.281
		c-1.257,0-2.279-1.023-2.279-2.281c0-1.257,1.022-2.28,2.279-2.28h2.281V792.617z M935.263,788.736v-4.474h4.474v4.474H935.263z
		 M943.618,794.898c-1.257,0-2.28-1.022-2.28-2.28v-2.281h2.28c1.258,0,2.28,1.023,2.28,2.28
		C945.898,793.875,944.876,794.898,943.618,794.898z"/>
	<text transform="matrix(1 0 0 1 912.5 735.5)" font-family="'MyriadPro-Regular'" font-size="14">results</text>
	<path fill="#E6E6E6" d="M902.983,719.5h-11.314c-2.302,0-4.169,1.908-4.169,4.319v10.934c0,2.41,1.867,4.364,4.169,4.364h3.191
		c0,1.718,0,3.436,0,5.153c0,0.283,0.391,0.484,0.593,0.245c1.521-1.8,3.04-3.598,4.562-5.398h2.969
		c2.302,0,4.168-1.954,4.168-4.364v-10.934C907.151,721.408,905.285,719.5,902.983,719.5z"/>
	<path fill="#FFFFFF" d="M899.043,734.726c-0.111,0-0.201-0.13-0.201-0.288v-6.707h-4.188v0.86h0.758c0.109,0,0.199,0.09,0.199,0.2
		v5.734c0,0.109-0.09,0.2-0.199,0.2h-0.758v0.889h5.206v-0.889H899.043L899.043,734.726z"/>
	<path fill="#FFFFFF" d="M897.226,722.053c0.993,0,1.797,1.323,1.797,2.315c0,0.993-0.804,1.798-1.797,1.798
		c-0.992,0-1.798-0.805-1.798-1.798C895.428,723.376,896.233,722.053,897.226,722.053z"/>
	<text transform="matrix(1 0 0 1 914.5 950.5)" font-family="'MyriadPro-Regular'" font-size="14">results</text>
	<path fill="#E6E6E6" d="M904.983,934.5h-11.314c-2.302,0-4.169,1.908-4.169,4.319v10.934c0,2.41,1.867,4.364,4.169,4.364h3.191
		c0,1.718,0,3.436,0,5.153c0,0.283,0.391,0.484,0.593,0.245c1.521-1.8,3.04-3.598,4.562-5.398h2.969
		c2.302,0,4.168-1.954,4.168-4.364v-10.934C909.151,936.408,907.285,934.5,904.983,934.5z"/>
	<path fill="#FFFFFF" d="M901.043,949.726c-0.111,0-0.201-0.13-0.201-0.288v-6.707h-4.188v0.86h0.758c0.109,0,0.199,0.09,0.199,0.2
		v5.734c0,0.109-0.09,0.2-0.199,0.2h-0.758v0.889h5.206v-0.889H901.043L901.043,949.726z"/>
	<path fill="#FFFFFF" d="M899.226,937.053c0.993,0,1.797,1.323,1.797,2.315c0,0.993-0.804,1.798-1.797,1.798
		c-0.992,0-1.798-0.805-1.798-1.798C897.428,938.376,898.233,937.053,899.226,937.053z"/>
	<text transform="matrix(1 0 0 1 859.5 1016.9668)" font-family="'MyriadPro-Regular'" font-size="14">checkout</text>
	<path fill="#E6E6E6" d="M843.674,1015.354c1.922,2.308,3.843,4.616,5.764,6.925c0.143,0.169,0.308,0.23,0.469,0.219
		c0.16,0.012,0.326-0.05,0.467-0.219c1.922-2.309,3.844-4.617,5.765-6.925c0.355-0.427,0.148-1.13-0.468-1.13
		c-0.807,0-1.613,0-2.418,0c0-3.491,0-6.982,0-10.473c0-0.36-0.302-0.662-0.662-0.662c-1.789,0-3.578,0-5.367,0
		c-0.361,0-0.663,0.302-0.663,0.662c0,3.49,0,6.981,0,10.473c-0.806,0-1.612,0-2.419,0
		C843.525,1014.225,843.318,1014.928,843.674,1015.354z"/>
	<text transform="matrix(1 0 0 1 955.5 1016.9668)" font-family="'MyriadPro-Regular'" font-size="14">update</text>
	<path fill="#E6E6E6" d="M952.138,1010.235c-1.922-2.308-3.843-4.616-5.764-6.925c-0.143-0.169-0.308-0.23-0.469-0.219
		c-0.16-0.012-0.326,0.05-0.467,0.219c-1.922,2.309-3.844,4.617-5.765,6.925c-0.355,0.427-0.148,1.13,0.468,1.13
		c0.807,0,1.613,0,2.418,0c0,3.491,0,6.982,0,10.473c0,0.36,0.302,0.662,0.662,0.662c1.789,0,3.578,0,5.367,0
		c0.361,0,0.663-0.302,0.663-0.662c0-3.49,0-6.981,0-10.473c0.806,0,1.612,0,2.419,0
		C952.286,1011.365,952.493,1010.662,952.138,1010.235z"/>
	<text transform="matrix(1 0 0 1 907.5 1078.9668)" font-family="'MyriadPro-Regular'" font-size="14">checkout</text>
	<path fill="#E6E6E6" d="M891.674,1077.354c1.922,2.308,3.843,4.616,5.764,6.925c0.143,0.169,0.308,0.23,0.469,0.219
		c0.16,0.012,0.326-0.05,0.467-0.219c1.922-2.309,3.844-4.617,5.765-6.925c0.355-0.427,0.148-1.13-0.468-1.13
		c-0.807,0-1.613,0-2.418,0c0-3.491,0-6.982,0-10.473c0-0.36-0.302-0.662-0.662-0.662c-1.789,0-3.578,0-5.367,0
		c-0.361,0-0.663,0.302-0.663,0.662c0,3.49,0,6.981,0,10.473c-0.806,0-1.612,0-2.419,0
		C891.525,1076.225,891.318,1076.928,891.674,1077.354z"/>
	<a xlink:href="http://buildbot.net/buildbot/docs/0.8.5/manual/cfg-buildfactories.html" >
		<text transform="matrix(1 0 0 1 659.5 764.5)" font-family="'MyriadPro-Regular'" font-size="14">BuildFactory</text>
	</a>
	<polygon fill="#E6E6E6" points="654.478,767.5 654.478,755.951 647.912,759.698 647.912,755.951 641.262,759.748 641.262,755.951 
		639.551,755.951 639.551,743.506 636.861,743.506 636.861,755.951 634.84,755.951 634.84,743.506 632.152,743.506 632.152,755.951 
		630.5,755.951 630.5,767.5 	"/>
	<text transform="matrix(1 0 0 1 344.5005 697.502)" font-family="'MyriadPro-Regular'" font-size="14">BuildSet</text>
	<text transform="matrix(1 0 0 1 344.5005 987.4961)" font-family="'MyriadPro-Regular'" font-size="14">BuildSet</text>
	<g>
		<g>
			<line fill="none" stroke="#000000" stroke-width="0.5" x1="695" y1="916.507" x2="695" y2="903.5"/>
			<polygon points="697.501,904.229 695.008,899.911 692.515,904.229 			"/>
		</g>
	</g>
	<a xlink:href="http://buildbot.net/buildbot/docs/0.8.5/manual/cfg-buildfactories.html" >
		<text transform="matrix(1 0 0 1 659.5 931.5)" font-family="'MyriadPro-Regular'" font-size="14">BuildFactory</text>
	</a>
	<polygon fill="#E6E6E6" points="654.478,934.5 654.478,922.952 647.912,926.699 647.912,922.952 641.262,926.749 641.262,922.952 
		639.551,922.952 639.551,910.507 636.861,910.507 636.861,922.952 634.84,922.952 634.84,910.507 632.152,910.507 632.152,922.952 
		630.5,922.952 630.5,934.5 	"/>
	<path fill="#E6E6E6" d="M212.926,774.979c-0.38,0-0.689,0.309-0.689,0.69v5.521h-5.436c-0.381,0-0.691,0.31-0.691,0.691
		c0,0.381,0.311,0.688,0.691,0.688h6.127l0,0c0.381,0,0.688-0.308,0.688-0.688v-6.213
		C213.616,775.287,213.307,774.979,212.926,774.979z"/>
	<path fill="#E6E6E6" d="M222.558,781.778c0-3.353-1.741-6.304-4.367-8.003l0.415-0.727c0.926,0.597,1.751,1.338,2.443,2.188
		l0.68-1.746c0.223-0.777-0.508-1.691-1.903-2.579l0.698-1.22l-0.002-0.001c0.037-0.067,0.063-0.145,0.063-0.229
		c0-0.253-0.207-0.459-0.462-0.459c-0.17,0-0.317,0.095-0.397,0.232l0,0l-0.693,1.211c-1.512-0.807-2.706-1.002-3.279-0.408
		l-1.189,1.481c1.156,0.174,2.25,0.54,3.249,1.065l-0.417,0.727c-1.311-0.678-2.793-1.063-4.365-1.063
		c-1.574,0-3.058,0.386-4.366,1.063l-0.417-0.727c1-0.523,2.092-0.892,3.249-1.065l-1.188-1.481
		c-0.575-0.594-1.77-0.398-3.282,0.408l-0.693-1.211h-0.001c-0.079-0.138-0.228-0.231-0.397-0.231c-0.254,0-0.46,0.205-0.46,0.458
		c0,0.085,0.022,0.161,0.063,0.229l-0.001,0.001l0.695,1.22c-1.395,0.888-2.124,1.802-1.902,2.579l0.682,1.746
		c0.691-0.851,1.518-1.592,2.443-2.188l0.414,0.727c-2.625,1.699-4.367,4.65-4.367,8.003c0,3.389,1.779,6.367,4.451,8.058
		l-0.851,1.487l0.003,0.001c-0.04,0.067-0.063,0.144-0.063,0.228c0,0.253,0.205,0.459,0.459,0.459c0.172,0,0.319-0.094,0.396-0.232
		h0.003l0.851-1.488c1.288,0.647,2.742,1.017,4.279,1.017s2.99-0.369,4.277-1.017l0.852,1.488h0.002
		c0.078,0.139,0.227,0.232,0.397,0.232c0.255,0,0.46-0.206,0.46-0.459c0-0.084-0.023-0.16-0.063-0.228l0.003-0.001l-0.85-1.487
		C220.778,788.146,222.558,785.167,222.558,781.778z M213.029,789.927c-4.494,0-8.149-3.655-8.149-8.148s3.655-8.149,8.149-8.149
		c4.492,0,8.149,3.656,8.149,8.149S217.523,789.927,213.029,789.927z"/>
	<path fill="#E6E6E6" d="M225.408,781.91L225.408,781.91L225.408,781.91L225.408,781.91c-0.018-1.318-0.449-2.431-1.357-3.394
		c-0.318-0.338-0.826,0.171-0.508,0.509c0.775,0.826,1.129,1.756,1.146,2.885c-0.018,1.13-0.371,2.059-1.146,2.885
		c-0.318,0.338,0.189,0.849,0.508,0.51C224.955,784.341,225.391,783.23,225.408,781.91L225.408,781.91z"/>
	<path fill="#E6E6E6" d="M227.481,781.91L227.481,781.91L227.481,781.91L227.481,781.91c-0.026-1.89-0.673-3.586-1.981-4.957
		c-0.342-0.36-0.888,0.187-0.544,0.546c1.167,1.224,1.732,2.724,1.757,4.411c-0.024,1.688-0.59,3.19-1.757,4.413
		c-0.344,0.359,0.202,0.904,0.544,0.546C226.809,785.497,227.455,783.802,227.481,781.91L227.481,781.91z"/>
	<path fill="#E6E6E6" d="M229.01,781.91L229.01,781.91L229.01,781.91c-0.023-2.222-0.803-4.267-2.345-5.871
		c-0.321-0.336-0.831,0.173-0.509,0.509c1.41,1.469,2.111,3.329,2.133,5.362c-0.021,2.034-0.723,3.895-2.133,5.364
		c-0.322,0.333,0.188,0.845,0.509,0.508C228.207,786.178,228.986,784.134,229.01,781.91L229.01,781.91L229.01,781.91z"/>
	<text transform="matrix(1 0 0 1 232.5005 786.0039)" font-family="'MyriadPro-Regular'" font-size="14">Change</text>
	<path fill="#E6E6E6" d="M72.046,1156.2c-0.38,0-0.689,0.309-0.689,0.69v5.521h-5.436c-0.381,0-0.691,0.31-0.691,0.691
		c0,0.381,0.311,0.688,0.691,0.688h6.127l0,0c0.381,0,0.688-0.308,0.688-0.688v-6.213C72.736,1156.509,72.427,1156.2,72.046,1156.2z
		"/>
	<path fill="#E6E6E6" d="M81.678,1163c0-3.353-1.741-6.304-4.367-8.003l0.415-0.727c0.926,0.597,1.751,1.338,2.443,2.188l0.68-1.746
		c0.223-0.777-0.508-1.691-1.903-2.579l0.698-1.22l-0.002-0.001c0.037-0.067,0.063-0.145,0.063-0.229
		c0-0.253-0.207-0.459-0.462-0.459c-0.17,0-0.317,0.095-0.397,0.232l0,0l-0.693,1.211c-1.512-0.807-2.706-1.002-3.279-0.408
		l-1.189,1.481c1.156,0.174,2.25,0.54,3.249,1.065l-0.417,0.727c-1.311-0.678-2.793-1.063-4.365-1.063
		c-1.574,0-3.058,0.386-4.366,1.063l-0.417-0.727c1-0.523,2.092-0.892,3.249-1.065l-1.188-1.481
		c-0.575-0.594-1.77-0.398-3.282,0.408l-0.693-1.211h-0.001c-0.079-0.138-0.228-0.231-0.397-0.231c-0.254,0-0.46,0.205-0.46,0.458
		c0,0.085,0.022,0.161,0.063,0.229l-0.001,0.001l0.695,1.22c-1.395,0.888-2.124,1.802-1.902,2.579l0.682,1.746
		c0.691-0.851,1.518-1.592,2.443-2.188l0.414,0.727c-2.625,1.699-4.367,4.65-4.367,8.003c0,3.389,1.779,6.367,4.451,8.058
		l-0.851,1.487l0.003,0.001c-0.04,0.067-0.063,0.144-0.063,0.228c0,0.253,0.205,0.459,0.459,0.459c0.172,0,0.319-0.094,0.396-0.232
		h0.003l0.851-1.488c1.288,0.647,2.742,1.017,4.279,1.017s2.99-0.369,4.277-1.017l0.852,1.488h0.002
		c0.078,0.139,0.227,0.232,0.397,0.232c0.255,0,0.46-0.206,0.46-0.459c0-0.084-0.023-0.16-0.063-0.228l0.003-0.001l-0.85-1.487
		C79.898,1169.367,81.678,1166.389,81.678,1163z M72.149,1171.148c-4.494,0-8.149-3.655-8.149-8.148s3.655-8.149,8.149-8.149
		c4.492,0,8.149,3.656,8.149,8.149S76.644,1171.148,72.149,1171.148z"/>
	<g>
		<path fill="#FFFFFF" d="M419,894c0,2.75-2.25,5-5,5h-68c-2.75,0-5-2.25-5-5v-17c0-2.75,2.25-5,5-5h68c2.75,0,5,2.25,5,5V894z"/>
		<path fill="none" stroke="#000000" stroke-width="0.5" d="M419,894c0,2.75-2.25,5-5,5h-68c-2.75,0-5-2.25-5-5v-17
			c0-2.75,2.25-5,5-5h68c2.75,0,5,2.25,5,5V894z"/>
	</g>
	<a xlink:href="http://buildbot.net/buildbot/docs/0.8.5/manual/cfg-schedulers.html" >
		<text transform="matrix(1 0 0 1 350.5 890.5)" font-family="'MyriadPro-Regular'" font-size="14">Scheduler</text>
	</a>
	<g>
		<path fill="#FFFFFF" d="M151,812.249H58c-3.998,0-7.249-3.251-7.249-7.249v-13.001c0-3.998,3.25-7.249,7.249-7.249h93
			c3.998,0,7.251,3.251,7.251,7.249V805C158.25,808.998,154.998,812.249,151,812.249L151,812.249z"/>
		<path d="M151,785c3.85,0,7,3.15,7,7v13c0,3.85-3.15,7-7,7H58c-3.85,0-7-3.15-7-7v-13c0-3.85,3.15-7,7-7H151 M151,784.5H58
			c-4.136,0-7.5,3.364-7.5,7.5v13c0,4.136,3.364,7.5,7.5,7.5h93c4.136,0,7.5-3.364,7.5-7.5v-13
			C158.5,787.864,155.136,784.5,151,784.5L151,784.5z"/>
	</g>
	<a xlink:href="http://buildbot.net/buildbot/docs/0.8.5/manual/cfg-changesources.html" >
		<text transform="matrix(1 0 0 1 60.5 803.5039)" font-family="'MyriadPro-Regular'" font-size="14">ChangeSource</text>
	</a>
	<defs>
		<filter id="Adobe_OpacityMaskFilter" filterUnits="userSpaceOnUse" x="504.5" y="478.502" width="71" height="201">
			<feColorMatrix  type="matrix" values="1 0 0 0 0  0 1 0 0 0  0 0 1 0 0  0 0 0 1 0"/>
		</filter>
	</defs>
	<mask maskUnits="userSpaceOnUse" x="504.5" y="478.502" width="71" height="201" id="SVGID_1_">
		<g filter="url(#Adobe_OpacityMaskFilter)">
			
				<linearGradient id="SVGID_2_" gradientUnits="userSpaceOnUse" x1="6960.999" y1="6315.083" x2="6960.999" y2="6411.4976" gradientTransform="matrix(-1 0 0 -1 7500 6890)">
				<stop  offset="0" style="stop-color:#FFFFFF"/>
				<stop  offset="1" style="stop-color:#000000"/>
			</linearGradient>
			<rect x="490.5" y="473.6" fill="url(#SVGID_2_)" width="97" height="212.438"/>
		</g>
	</mask>
	<rect x="504.5" y="478.502" mask="url(#SVGID_1_)" fill="#FFFFFF" width="71" height="201"/>
	<path fill="#E6E6E6" d="M558.848,665.061L540.164,585.5l-18.684,79.561C527.281,672.381,553.046,672.381,558.848,665.061z"/>
	<path fill="#E6E6E6" d="M559.002,658.674l1.592,6.775l-0.482,0.611c-3.567,4.5-12.643,6.102-19.947,6.102
		s-16.382-1.604-19.945-6.102l-0.484-0.611l1.592-6.775c-13.809,1.896-21.826,5.904-21.826,10.553
		c0,6.482,15.504,11.734,40.665,11.734s40.662-5.252,40.662-11.734C580.827,664.576,572.811,660.57,559.002,658.674z"/>
	<path fill="#E6E6E6" d="M500.982,1169.277l-5.818-24.777l-5.818,24.777C491.151,1171.557,499.176,1171.557,500.982,1169.277z"/>
	<path fill="#E6E6E6" d="M501.03,1167.288l0.496,2.11l-0.15,0.19c-1.111,1.401-3.938,1.899-6.212,1.899
		c-2.275,0-5.102-0.499-6.212-1.899l-0.15-0.19l0.495-2.11c-4.3,0.591-6.797,1.839-6.797,3.286c0,2.019,4.828,3.654,12.664,3.654
		s12.663-1.636,12.663-3.654C507.827,1169.126,505.33,1167.879,501.03,1167.288z"/>
	<text transform="matrix(1 0 0 1 585.4995 530.4995)" font-family="'MyriadPro-Regular'" font-size="14">Status</text>
	<path fill="#E6E6E6" d="M576.458,514.5h-11.314c-2.302,0-4.169,1.908-4.169,4.319v10.934c0,2.41,1.867,4.364,4.169,4.364h3.191
		c0,1.718,0,3.436,0,5.153c0,0.283,0.391,0.484,0.593,0.245c1.521-1.8,3.04-3.598,4.562-5.398h2.969
		c2.302,0,4.168-1.954,4.168-4.364v-10.934C580.626,516.408,578.76,514.5,576.458,514.5z"/>
	<path fill="#FFFFFF" d="M572.518,529.726c-0.111,0-0.201-0.13-0.201-0.288v-6.707h-4.188v0.86h0.758c0.109,0,0.199,0.09,0.199,0.2
		v5.734c0,0.109-0.09,0.2-0.199,0.2h-0.758v0.889h5.206v-0.889H572.518L572.518,529.726z"/>
	<path fill="#FFFFFF" d="M570.7,517.053c0.993,0,1.797,1.323,1.797,2.315c0,0.993-0.804,1.798-1.797,1.798
		c-0.992,0-1.798-0.805-1.798-1.798C568.902,518.376,569.708,517.053,570.7,517.053z"/>
	<g>
		<path fill="none" stroke="#878787" stroke-width="0.5" d="M1203.75,382.921c0,3.85-3.15,7-7,7h-192.5c-3.85,0-7-3.15-7-7V273.814
			c0-3.85,3.15-7,7-7h192.5c3.85,0,7,3.15,7,7V382.921z"/>
	</g>
	<text transform="matrix(1 0 0 1 1071.2988 256.5566)" font-family="'MyriadPro-Regular'" font-size="14">Legend</text>
	<g>
		<g>
			<line fill="none" stroke="#000000" stroke-width="0.5" x1="1046.596" y1="313.145" x2="1080.404" y2="313.145"/>
			<polygon points="1079.675,315.646 1083.992,313.152 1079.675,310.659 			"/>
		</g>
	</g>
	<g>
		<path fill="#FFFFFF" d="M1081,292c0,2.75-2.25,5-5,5h-30c-2.75,0-5-2.25-5-5v-8c0-2.75,2.25-5,5-5h30c2.75,0,5,2.25,5,5V292z"/>
		<path fill="none" stroke="#000000" stroke-width="0.5" d="M1081,292c0,2.75-2.25,5-5,5h-30c-2.75,0-5-2.25-5-5v-8
			c0-2.75,2.25-5,5-5h30c2.75,0,5,2.25,5,5V292z"/>
	</g>
	<text transform="matrix(1 0 0 1 1047.2402 291.3047)" font-family="'MyriadPro-Regular'" font-size="10">foo bar</text>
	<g>
		<g>
			<line fill="none" stroke="#000000" stroke-width="0.5" x1="1018.062" y1="366" x2="1080.938" y2="366"/>
			<polygon points="1080.209,368.501 1084.527,366.008 1080.209,363.515 			"/>
		</g>
	</g>
	<rect x="1027" y="359" fill="#FFFFFF" stroke="#000000" stroke-width="0.5" width="33" height="14"/>
	<rect x="1051.266" y="360.119" fill="#DEDEDE" width="7.941" height="11"/>
	<rect x="1041.529" y="360.119" fill="#DEDEDE" width="7.941" height="11"/>
	<text transform="matrix(1 0 0 1 1018.1738 362.3115)" fill="#ABABAB" font-family="'MyriadPro-Regular'" font-size="11.9135">λ</text>
	<text transform="matrix(1 0 0 1 1066.4893 380.1816)" fill="#ABABAB" font-family="'MyriadPro-Regular'" font-size="11.9135">μ</text>
	<circle fill="#FFFFFF" stroke="#000000" stroke-width="0.5" cx="1069.797" cy="365.622" r="6.619"/>
	<text transform="matrix(1 0 0 1 1089.8301 333.4141)"><tspan x="0" y="0" font-family="'MyriadPro-Regular'" font-size="10">some kind of transferred</tspan><tspan x="0" y="12" font-family="'MyriadPro-Regular'" font-size="10">data or operation</tspan></text>
	<path fill="#E6E6E6" d="M1051.236,329.36h-7.489c-1.523,0-2.759,1.263-2.759,2.859v7.236c0,1.595,1.235,2.889,2.759,2.889h2.112
		c0,1.137,0,2.273,0,3.41c0,0.188,0.259,0.321,0.393,0.163c1.006-1.191,2.012-2.382,3.02-3.573h1.965
		c1.523,0,2.758-1.294,2.758-2.889v-7.236C1053.994,330.623,1052.76,329.36,1051.236,329.36z"/>
	<path fill="#FFFFFF" d="M1048.628,339.438c-0.073,0-0.134-0.086-0.134-0.19v-4.438h-2.771v0.568h0.502
		c0.072,0,0.131,0.061,0.131,0.133v3.796c0,0.072-0.059,0.132-0.131,0.132h-0.502v0.589h3.445v-0.589H1048.628L1048.628,339.438z"/>
	<path fill="#FFFFFF" d="M1047.425,331.051c0.657,0,1.189,0.875,1.189,1.532s-0.532,1.189-1.189,1.189
		c-0.656,0-1.19-0.532-1.19-1.189S1046.769,331.051,1047.425,331.051z"/>
	<text transform="matrix(1 0 0 1 1089.8311 316.125)" font-family="'MyriadPro-Regular'" font-size="10">data flow</text>
	<text transform="matrix(1 0 0 1 1089.8311 367.5625)" font-family="'MyriadPro-Regular'" font-size="10">a queue of items</text>
	<text transform="matrix(1 0 0 1 1089.8311 290.3125)" font-family="'MyriadPro-Regular'" font-size="10">a component</text>
	<text transform="matrix(1 0 0 1 1059.3311 339.125)" font-family="'MyriadPro-Regular'" font-size="10">lorem</text>
	<a xlink:href="http://www.DevonStrawn.com" >
		<text transform="matrix(1 0 0 1 517.4229 1120.8145)" fill="#5FC2FF" font-family="'MyriadPro-Regular'" font-size="14">© Devon Strawn</text>
	</a>
	<path id="path5906_2_" fill="#FFFFFF" d="M650.816,1116.799c0.005,7.53-6.096,13.637-13.627,13.643
		c-7.529,0.004-13.639-6.096-13.643-13.625c0-0.006,0-0.012,0-0.018c-0.004-7.529,6.097-13.637,13.627-13.641
		c7.531-0.005,13.639,6.096,13.643,13.625C650.816,1116.788,650.816,1116.794,650.816,1116.799z"/>
	<path id="path5708_2_" fill="#5FC2FF" d="M648.266,1105.695c3.023,3.023,4.535,6.725,4.535,11.104
		c0,4.381-1.485,8.043-4.457,10.988c-3.153,3.103-6.881,4.653-11.182,4.653c-4.248,0-7.911-1.538-10.986-4.614
		c-3.076-3.075-4.613-6.751-4.613-11.027c0-4.274,1.537-7.977,4.613-11.104c2.997-3.024,6.66-4.537,10.986-4.537
		C641.541,1101.158,645.242,1102.671,648.266,1105.695z M628.211,1107.729c-2.557,2.582-3.834,5.605-3.834,9.075
		c0,3.468,1.266,6.467,3.795,8.995c2.53,2.53,5.542,3.795,9.037,3.795c3.494,0,6.531-1.277,9.113-3.833
		c2.452-2.374,3.678-5.358,3.678-8.957c0-3.571-1.246-6.604-3.736-9.095s-5.509-3.735-9.055-3.735
		C633.662,1103.974,630.662,1105.226,628.211,1107.729z M634.938,1115.277c-0.391-0.852-0.975-1.277-1.754-1.277
		c-1.379,0-2.068,0.929-2.068,2.783c0,1.856,0.689,2.783,2.068,2.783c0.91,0,1.561-0.451,1.95-1.356l1.911,1.018
		c-0.911,1.618-2.277,2.427-4.1,2.427c-1.405,0-2.531-0.431-3.377-1.291c-0.846-0.861-1.269-2.05-1.269-3.564
		c0-1.486,0.437-2.668,1.308-3.543c0.872-0.875,1.958-1.312,3.26-1.312c1.926,0,3.305,0.759,4.139,2.274L634.938,1115.277z
		 M643.928,1115.277c-0.391-0.852-0.964-1.277-1.719-1.277c-1.406,0-2.11,0.929-2.11,2.783c0,1.856,0.704,2.783,2.11,2.783
		c0.911,0,1.55-0.451,1.914-1.356l1.953,1.018c-0.908,1.618-2.273,2.427-4.092,2.427c-1.403,0-2.527-0.431-3.371-1.291
		c-0.844-0.861-1.267-2.05-1.267-3.564c0-1.486,0.429-2.668,1.286-3.543s1.948-1.312,3.273-1.312c1.923,0,3.3,0.759,4.131,2.274
		L643.928,1115.277z"/>
	<path id="path267_1_" fill="#5FC2FF" d="M688.209,1114.141c0.316,0,0.604,0.027,0.865,0.083c0.26,0.056,0.482,0.146,0.668,0.273
		c0.186,0.126,0.33,0.295,0.433,0.505c0.102,0.211,0.153,0.469,0.153,0.779c0,0.334-0.076,0.611-0.229,0.833
		c-0.151,0.224-0.377,0.405-0.674,0.548c0.41,0.117,0.716,0.322,0.918,0.617c0.201,0.293,0.303,0.648,0.303,1.063
		c0,0.334-0.065,0.623-0.195,0.867s-0.306,0.443-0.525,0.598c-0.22,0.155-0.471,0.27-0.753,0.344s-0.571,0.111-0.869,0.111h-3.216
		v-6.621H688.209L688.209,1114.141z M688.023,1116.818c0.26,0,0.473-0.063,0.641-0.186s0.251-0.323,0.251-0.601
		c0-0.154-0.028-0.281-0.083-0.38c-0.057-0.099-0.131-0.176-0.224-0.231s-0.2-0.095-0.32-0.115c-0.12-0.021-0.247-0.032-0.376-0.032
		h-1.365v1.545H688.023z M688.108,1119.629c0.143,0,0.278-0.014,0.409-0.042c0.129-0.028,0.244-0.075,0.344-0.139
		c0.1-0.065,0.178-0.153,0.236-0.265c0.061-0.111,0.089-0.254,0.089-0.427c0-0.339-0.097-0.582-0.288-0.728
		c-0.192-0.145-0.446-0.217-0.762-0.217h-1.59v1.816H688.108z"/>
	<path id="path269_1_" fill="#5FC2FF" d="M690.903,1114.141h1.634l1.551,2.615l1.541-2.615h1.623l-2.458,4.08v2.541h-1.46v-2.578
		L690.903,1114.141z"/>
	
		<circle id="circle277_1_"     fill="#FFFFFF" cx="668.725" cy="1118.017" r="10.738">
	</circle>
	<path id="path281_1_" fill="#5FC2FF" d="M671.832,1114.909c0-0.414-0.336-0.748-0.748-0.748h-4.744
		c-0.412,0-0.748,0.334-0.748,0.748v4.743h1.322v5.616h3.595v-5.616h1.323V1114.909L671.832,1114.909z"/>
	
		<circle id="circle283_1_"     fill="#5FC2FF" cx="668.711" cy="1111.914" r="1.622">
	</circle>
	<path id="path285_1_" fill="#5FC2FF" d="M668.697,1106.186c-3.213,0-5.932,1.12-8.157,3.362c-2.283,2.318-3.425,5.063-3.425,8.232
		c0,3.168,1.142,5.895,3.425,8.174c2.284,2.28,5.003,3.42,8.157,3.42c3.193,0,5.961-1.148,8.301-3.449
		c2.207-2.183,3.311-4.898,3.311-8.145c0-3.247-1.123-5.99-3.367-8.232C674.695,1107.306,671.948,1106.186,668.697,1106.186z
		 M668.727,1108.272c2.631,0,4.867,0.928,6.705,2.783c1.857,1.835,2.785,4.076,2.785,6.725c0,2.666-0.908,4.879-2.728,6.638
		c-1.917,1.894-4.17,2.841-6.763,2.841c-2.595,0-4.83-0.938-6.705-2.812c-1.879-1.875-2.816-4.097-2.816-6.667
		s0.949-4.813,2.846-6.725C663.869,1109.2,666.094,1108.272,668.727,1108.272z"/>
	<a xlink:href="http://thenounproject.com/noun/witch-hat/#icon-No864" >
		<text transform="matrix(1 0 0 1 523.4229 1162.8145)" fill="#E6E6E6" font-family="'MyriadPro-Regular'" font-size="14">Witch Hat © Matthew Hock, from TheNounProject.com</text>
	</a>
	<a xlink:href="http://thenounproject.com/noun/witch-hat/#icon-No864" >
		<text transform="matrix(1 0 0 1 135.4229 1162.8145)" fill="#E6E6E6" font-family="'MyriadPro-Regular'" font-size="14">Computer, Alarm Clock, Factory © TheNounProject.com</text>
	</a>
	<a xlink:href="http://thenounproject.com/noun/construction/#icon-No440" >
		<text transform="matrix(1 0 0 1 957.4229 1159.8145)" fill="#E6E6E6" font-family="'MyriadPro-Regular'" font-size="14">St. John’s Arms, Construction are public domain</text>
	</a>
	<polygon fill="#E6E6E6" points="119.478,1174.5 119.478,1162.951 112.912,1166.698 112.912,1162.951 106.262,1166.748 
		106.262,1162.951 104.551,1162.951 104.551,1150.506 101.861,1150.506 101.861,1162.951 99.84,1162.951 99.84,1150.506 
		97.152,1150.506 97.152,1162.951 95.5,1162.951 95.5,1174.5 	"/>
	<path fill="#E6E6E6" d="M907.355,1159.474h-2.28V1155h2.28c2.14,0,3.882-1.741,3.882-3.882s-1.742-3.881-3.882-3.881
		s-3.882,1.74-3.882,3.881v2.281H899v-2.281c0-2.141-1.741-3.881-3.882-3.881c-2.139,0-3.881,1.74-3.881,3.881
		s1.742,3.882,3.881,3.882h2.281v4.474h-2.281c-2.139,0-3.881,1.741-3.881,3.881c0,2.141,1.742,3.883,3.881,3.883
		c2.141,0,3.882-1.742,3.882-3.883v-2.28h4.474v2.28c0,2.141,1.741,3.883,3.882,3.883c2.14,0,3.882-1.742,3.882-3.883
		C911.237,1161.215,909.495,1159.474,907.355,1159.474z M905.075,1151.118c0-1.258,1.023-2.281,2.28-2.281
		c1.258,0,2.28,1.023,2.28,2.281s-1.022,2.281-2.28,2.281h-2.28V1151.118z M895.118,1153.399c-1.257,0-2.279-1.023-2.279-2.281
		s1.022-2.281,2.279-2.281c1.258,0,2.281,1.023,2.281,2.281v2.281H895.118z M897.399,1163.354c0,1.258-1.023,2.281-2.281,2.281
		c-1.257,0-2.279-1.023-2.279-2.281c0-1.257,1.022-2.28,2.279-2.28h2.281V1163.354z M899,1159.474V1155h4.474v4.474H899z
		 M907.355,1165.636c-1.257,0-2.28-1.022-2.28-2.28v-2.281h2.28c1.258,0,2.28,1.023,2.28,2.28
		C909.636,1164.612,908.613,1165.636,907.355,1165.636z"/>
</g>
<g id="Layer_3">
</g>
<g id="Layer_2" display="none">
	<rect id="_x3C_Slice_x3E_" x="307.5" y="419.5" display="inline" fill="none" width="134" height="47"/>
	<rect id="_x3C_Slice_x3E__1_" x="473.5" y="419.5" display="inline" fill="none" width="151" height="44"/>
	<rect id="_x3C_Slice_x3E__2_" x="473.5" y="419.5" display="inline" fill="none" width="151" height="44"/>
	<rect id="_x3C_Slice_x3E__3_" x="473.5" y="419.5" display="inline" fill="none" width="151" height="44"/>
	<rect id="_x3C_Slice_x3E__4_" x="634.5" y="419.5" display="inline" fill="none" width="158" height="47"/>
	<rect id="_x3C_Slice_x3E__5_" x="634.5" y="419.5" display="inline" fill="none" width="158" height="47"/>
	<rect id="_x3C_Slice_x3E__6_" x="634.5" y="419.5" display="inline" fill="none" width="158" height="47"/>
	<rect id="_x3C_Slice_x3E__7_" x="634.5" y="419.5" display="inline" fill="none" width="158" height="47"/>
	<rect id="_x3C_Slice_x3E__8_" x="634.5" y="419.5" display="inline" fill="none" width="158" height="47"/>
	<rect id="_x3C_Slice_x3E__9_" x="634.5" y="419.5" display="inline" fill="none" width="158" height="47"/>
	<rect id="_x3C_Slice_x3E__10_" x="634.5" y="419.5" display="inline" fill="none" width="158" height="47"/>
	<rect id="_x3C_Slice_x3E__11_" x="484.5" y="582.5" display="inline" fill="none" width="113" height="129"/>
	<a xlink:href="http://buildbot.net/buildbot/docs/0.8.5/manual/cfg-changesources.html" >
		<rect id="_x3C_Slice_x3E__12_" x="29.5" y="589.5" display="inline" fill="none" width="155" height="126"/>
	</a>
	<rect id="_x3C_Slice_x3E__13_" x="1050.5" y="582.5" display="inline" fill="none" width="122" height="132"/>
	<rect id="_x3C_Slice_x3E__14_" x="493.5" y="20.5" display="inline" fill="none" width="647" height="114"/>
	<rect id="_x3C_Slice_x3E__15_" x="45.5" y="781.5" display="inline" fill="none" width="121" height="35"/>
	<rect id="_x3C_Slice_x3E__16_" x="197.5" y="764.5" display="inline" fill="none" width="86" height="28"/>
	<rect id="_x3C_Slice_x3E__17_" x="330.5" y="781.5" display="inline" fill="none" width="97" height="35"/>
	<rect id="_x3C_Slice_x3E__18_" x="330.5" y="869.5" display="inline" fill="none" width="97" height="31"/>
	<rect id="_x3C_Slice_x3E__19_" x="335.5" y="681.5" display="inline" fill="none" width="63" height="21"/>
	<rect id="_x3C_Slice_x3E__20_" x="339.5" y="970.5" display="inline" fill="none" width="59" height="21"/>
	<rect id="_x3C_Slice_x3E__21_" x="484.5" y="764.5" display="inline" fill="none" width="85" height="19"/>
	<rect id="_x3C_Slice_x3E__22_" x="484.5" y="853.5" display="inline" fill="none" width="85" height="21"/>
	<rect id="_x3C_Slice_x3E__23_" x="655.5" y="747.5" display="inline" fill="none" width="80" height="24"/>
	<rect id="_x3C_Slice_x3E__24_" x="655.5" y="911.5" display="inline" fill="none" width="80" height="22"/>
	<rect id="_x3C_Slice_x3E__25_" x="655.5" y="869.5" display="inline" fill="none" width="80" height="33"/>
	<rect id="_x3C_Slice_x3E__26_" x="655.5" y="781.5" display="inline" fill="none" width="79" height="35"/>
	<rect id="_x3C_Slice_x3E__27_" x="841.5" y="775.5" display="inline" fill="none" width="55" height="23"/>
	<rect id="_x3C_Slice_x3E__28_" x="922.5" y="775.5" display="inline" fill="none" width="62" height="22"/>
	<rect id="_x3C_Slice_x3E__29_" x="872.5" y="839.5" display="inline" fill="none" width="58" height="24"/>
	<rect id="_x3C_Slice_x3E__30_" x="841.5" y="885.5" display="inline" fill="none" width="58" height="26"/>
	<rect id="_x3C_Slice_x3E__31_" x="922.5" y="885.5" display="inline" fill="none" width="60" height="26"/>
	<rect id="_x3C_Slice_x3E__32_" x="1056.5" y="781.5" display="inline" fill="none" width="105" height="32"/>
	<rect id="_x3C_Slice_x3E__33_" x="1056.5" y="825.5" display="inline" fill="none" width="104" height="28"/>
	<rect id="_x3C_Slice_x3E__34_" x="1056.5" y="869.5" display="inline" fill="none" width="104" height="33"/>
</g>
</svg>
